<svg width="164" height="36" viewBox="0 0 164 36" fill="none" xmlns="http://www.w3.org/2000/svg">
<g clip-path="url(#clip0_92_26756)">
<path d="M16.4619 6.70769C16.686 6.11568 17.574 6.11568 17.798 6.70769C18.7447 9.2051 20.5668 13.5517 22.3889 15.3732C24.2154 17.1972 28.3424 19.0243 30.6922 19.971C31.2665 20.2001 31.2665 21.0629 30.6922 21.2926C28.3424 22.2393 24.2154 24.0659 22.3889 25.8905C20.5668 27.7126 18.7447 32.0592 17.798 34.556C17.574 35.148 16.686 35.148 16.4619 34.556C15.5127 32.0586 13.6912 27.7119 11.8717 25.8905C10.0496 24.0684 5.70292 22.2488 3.20614 21.3002C2.61413 21.0755 2.61413 20.1882 3.20614 19.9641C5.70355 19.0149 10.0502 17.1953 11.8717 15.3732C13.6906 13.5511 15.5133 9.2051 16.4619 6.70769ZM29.5807 1.43643C29.8225 0.854523 30.7345 0.854523 30.9787 1.43643C31.4817 2.64948 32.1943 4.13833 32.9087 4.85341C33.6263 5.57101 35.059 6.29051 36.2077 6.79352C36.7744 7.04282 36.7744 7.92326 36.2077 8.17193C35.059 8.67494 33.6263 9.39444 32.9087 10.112C32.1943 10.8271 31.4817 12.316 30.9787 13.529C30.7345 14.1135 29.8225 14.1135 29.5807 13.529C29.0777 12.316 28.3626 10.8271 27.6501 10.112C26.9356 9.39949 25.4462 8.68441 24.2331 8.1814C23.6493 7.9403 23.6493 7.02768 24.2331 6.78658C25.4462 6.28104 26.9356 5.56849 27.6501 4.85341C28.3633 4.13833 29.0777 2.64948 29.5807 1.43643ZM4.13013 4.9323C4.39394 4.35797 5.32298 4.35797 5.58742 4.9323C5.88784 5.583 6.25012 6.2438 6.60986 6.60608C6.97782 6.9734 7.62347 7.34072 8.24956 7.6443C8.80685 7.91316 8.80685 8.80811 8.24956 9.07698C7.62347 9.37992 6.97782 9.74725 6.6105 10.112C6.25075 10.4743 5.88784 11.1351 5.58742 11.7883C5.32361 12.3602 4.39394 12.3602 4.13013 11.7883C3.82907 11.1351 3.46743 10.4743 3.10453 10.112C2.74225 9.7523 2.08145 9.38939 1.43075 9.08897C0.856416 8.82516 0.856416 7.89612 1.43075 7.63167C2.08082 7.33125 2.74225 6.96898 3.10453 6.60608C3.4668 6.2438 3.82907 5.58363 4.13013 4.9323Z" fill="#2EACE1"/>
</g>
<path d="M148.771 26.6849V3.01489H152.971V26.6849H148.771ZM156.301 17.7749L162.241 26.6849H157.351L153.541 20.1749L156.301 17.7749ZM151.711 23.0549L151.291 19.0649L159.211 13.2449L161.761 15.4949L151.711 23.0549Z" fill="#2B2B2B"/>
<path d="M132.112 19.9648C132.112 18.6248 132.422 17.4248 133.042 16.3648C133.682 15.3048 134.572 14.4748 135.712 13.8748C136.852 13.2548 138.162 12.9448 139.642 12.9448C141.142 12.9448 142.442 13.2548 143.542 13.8748C144.642 14.4748 145.482 15.3048 146.062 16.3648C146.662 17.4248 146.962 18.6248 146.962 19.9648C146.962 21.3048 146.662 22.5148 146.062 23.5948C145.482 24.6548 144.642 25.4948 143.542 26.1148C142.442 26.7348 141.122 27.0448 139.582 27.0448C138.142 27.0448 136.852 26.7648 135.712 26.2048C134.592 25.6448 133.712 24.8348 133.072 23.7748C132.432 22.7148 132.112 21.4448 132.112 19.9648ZM136.342 19.9948C136.342 20.6748 136.482 21.2948 136.762 21.8548C137.042 22.3948 137.422 22.8248 137.902 23.1448C138.382 23.4648 138.922 23.6248 139.522 23.6248C140.182 23.6248 140.752 23.4648 141.232 23.1448C141.712 22.8248 142.082 22.3948 142.342 21.8548C142.602 21.2948 142.732 20.6748 142.732 19.9948C142.732 19.2948 142.602 18.6748 142.342 18.1348C142.082 17.5948 141.712 17.1648 141.232 16.8448C140.752 16.5248 140.182 16.3648 139.522 16.3648C138.922 16.3648 138.382 16.5248 137.902 16.8448C137.422 17.1648 137.042 17.5948 136.762 18.1348C136.482 18.6748 136.342 19.2948 136.342 19.9948Z" fill="#2B2B2B"/>
<path d="M116.474 19.9648C116.474 18.6248 116.784 17.4248 117.404 16.3648C118.044 15.3048 118.934 14.4748 120.074 13.8748C121.214 13.2548 122.524 12.9448 124.004 12.9448C125.504 12.9448 126.804 13.2548 127.904 13.8748C129.004 14.4748 129.844 15.3048 130.424 16.3648C131.024 17.4248 131.324 18.6248 131.324 19.9648C131.324 21.3048 131.024 22.5148 130.424 23.5948C129.844 24.6548 129.004 25.4948 127.904 26.1148C126.804 26.7348 125.484 27.0448 123.944 27.0448C122.504 27.0448 121.214 26.7648 120.074 26.2048C118.954 25.6448 118.074 24.8348 117.434 23.7748C116.794 22.7148 116.474 21.4448 116.474 19.9648ZM120.704 19.9948C120.704 20.6748 120.844 21.2948 121.124 21.8548C121.404 22.3948 121.784 22.8248 122.264 23.1448C122.744 23.4648 123.284 23.6248 123.884 23.6248C124.544 23.6248 125.114 23.4648 125.594 23.1448C126.074 22.8248 126.444 22.3948 126.704 21.8548C126.964 21.2948 127.094 20.6748 127.094 19.9948C127.094 19.2948 126.964 18.6748 126.704 18.1348C126.444 17.5948 126.074 17.1648 125.594 16.8448C125.114 16.5248 124.544 16.3648 123.884 16.3648C123.284 16.3648 122.744 16.5248 122.264 16.8448C121.784 17.1648 121.404 17.5948 121.124 18.1348C120.844 18.6748 120.704 19.2948 120.704 19.9948Z" fill="#2B2B2B"/>
<path d="M100.465 4.60498H104.815V22.485H115.195V26.685H100.465V4.60498Z" fill="#2B2B2B"/>
<path d="M98.0494 25.5148C97.4694 25.9748 96.7394 26.3448 95.8594 26.6248C94.9994 26.9048 94.1494 27.0448 93.3094 27.0448C91.8094 27.0448 90.4994 26.7748 89.3794 26.2348C88.2794 25.6748 87.4194 24.8848 86.7994 23.8648C86.1994 22.8248 85.8994 21.5748 85.8994 20.1148C85.8994 18.6548 86.2294 17.4148 86.8894 16.3948C87.5494 15.3548 88.4094 14.5648 89.4694 14.0248C90.5494 13.4848 91.6794 13.2148 92.8594 13.2148C94.0394 13.2148 95.0594 13.3748 95.9194 13.6948C96.7994 14.0148 97.5494 14.4348 98.1694 14.9548L96.1294 17.6548C95.8494 17.4348 95.4594 17.2148 94.9594 16.9948C94.4794 16.7548 93.9094 16.6348 93.2494 16.6348C92.6694 16.6348 92.1394 16.7848 91.6594 17.0848C91.1794 17.3848 90.7994 17.7948 90.5194 18.3148C90.2394 18.8348 90.0994 19.4348 90.0994 20.1148C90.0994 20.7548 90.2494 21.3448 90.5494 21.8848C90.8494 22.4248 91.2594 22.8548 91.7794 23.1748C92.3194 23.4748 92.9494 23.6248 93.6694 23.6248C94.1294 23.6248 94.5494 23.5648 94.9294 23.4448C95.3294 23.3048 95.6694 23.1148 95.9494 22.8748L98.0494 25.5148Z" fill="#2B2B2B"/>
<path d="M79.8942 13.5749H84.0942V26.6849H79.8942V13.5749ZM79.8042 8.92492C79.8042 8.30492 80.0442 7.79492 80.5242 7.39492C81.0242 6.99492 81.5542 6.79492 82.1142 6.79492C82.6742 6.79492 83.1842 6.99492 83.6442 7.39492C84.1242 7.79492 84.3642 8.30492 84.3642 8.92492C84.3642 9.54492 84.1242 10.0549 83.6442 10.4549C83.1842 10.8349 82.6742 11.0249 82.1142 11.0249C81.5542 11.0249 81.0242 10.8349 80.5242 10.4549C80.0442 10.0549 79.8042 9.54492 79.8042 8.92492Z" fill="#2B2B2B"/>
<path d="M70.8933 27.0448C70.1133 27.0448 69.3433 26.9048 68.5833 26.6248C67.8433 26.3248 67.2233 25.9048 66.7233 25.3648L66.8433 24.1348V32.9848H62.6733V13.2748H66.2733L66.8733 15.8248L66.5433 14.9248C67.2233 14.3448 67.9833 13.8648 68.8233 13.4848C69.6633 13.1048 70.6333 12.9148 71.7333 12.9148C72.9533 12.9148 74.0433 13.2048 75.0033 13.7848C75.9633 14.3448 76.7133 15.1648 77.2533 16.2448C77.8133 17.3048 78.0933 18.5848 78.0933 20.0848C78.0933 21.5648 77.7833 22.8248 77.1633 23.8648C76.5433 24.9048 75.6933 25.6948 74.6133 26.2348C73.5333 26.7748 72.2933 27.0448 70.8933 27.0448ZM70.0533 23.7448C70.7333 23.7448 71.3533 23.5948 71.9133 23.2948C72.4933 22.9948 72.9533 22.5748 73.2933 22.0348C73.6533 21.4748 73.8333 20.8448 73.8333 20.1448C73.8333 19.4048 73.6733 18.7648 73.3533 18.2248C73.0533 17.6648 72.6333 17.2348 72.0933 16.9348C71.5733 16.6148 70.9933 16.4548 70.3533 16.4548C69.7933 16.4548 69.2933 16.5348 68.8533 16.6948C68.4333 16.8348 68.0533 17.0548 67.7133 17.3548C67.3933 17.6348 67.1133 17.9948 66.8733 18.4348V21.6448C67.0333 22.0648 67.2633 22.4348 67.5633 22.7548C67.8633 23.0748 68.2233 23.3248 68.6433 23.5048C69.0833 23.6648 69.5533 23.7448 70.0533 23.7448Z" fill="#2B2B2B"/>
<path d="M44.8828 4.60498H59.9428V8.80498H49.2328V13.515H58.7128V17.715H49.2328V22.485H60.3628V26.685H44.8828V4.60498Z" fill="#2B2B2B"/>
<defs>
<clipPath id="clip0_92_26756">
<rect width="35.6327" height="34" fill="white" transform="translate(1 1)"/>
</clipPath>
</defs>
</svg>
